<?xml version="1.0" encoding="utf-8"?>
<!-- Generator: Adobe Adobe Illustrator 24.2.0, SVG Export Plug-In . SVG Version: 6.00 Build 0)  -->
<svg version="1.1" id="Layer_1" xmlns="http://www.w3.org/2000/svg" xmlns:xlink="http://www.w3.org/1999/xlink" x="0px" y="0px"
	 viewBox="0 0 1000 1000" style="enable-background:new 0 0 1000 1000;" xml:space="preserve">
<style type="text/css">
	.st0{fill:#F9345F;stroke:#FFFFFF;stroke-width:3;stroke-miterlimit:10;}
	.st1{stroke:#FFFFFF;stroke-width:3;stroke-miterlimit:10;}
</style>
<path class="st0" d="M150,500c0-72.27,21.91-139.43,59.44-195.2C272.3,211.43,378.98,150,500,150c193.3,0,350,156.7,350,350
	S693.3,850,500,850S150,693.3,150,500z M150,500c706.35,0,700,0,700,0 M500,668c92.78,0,168-75.22,168-168s-75.22-168-168-168
	s-168,75.22-168,168S407.22,668,500,668z"/>
<circle class="st1" cx="500" cy="500" r="115.12"/>
<path class="st1" d="M625.14-410.05"/>
</svg>
